<svg width="30" height="30" viewBox="0 0 30 30" fill="none" xmlns="http://www.w3.org/2000/svg">
<path d="M26.9325 20.0756C26.5809 20.4271 26.104 20.6246 25.6068 20.6246C25.1097 20.6246 24.6328 20.4271 24.2812 20.0756L15 10.7943L5.71872 20.0756C5.36509 20.4171 4.89146 20.6061 4.39984 20.6019C3.90822 20.5976 3.43795 20.4004 3.09031 20.0528C2.74267 19.7051 2.54548 19.2348 2.54121 18.7432C2.53694 18.2516 2.72593 17.778 3.06747 17.4243L13.6743 6.81747C14.026 6.46596 14.5028 6.2685 15 6.2685C15.4972 6.2685 15.974 6.46596 16.3256 6.81747L26.9325 17.4243C27.284 17.776 27.4814 18.2528 27.4814 18.75C27.4814 19.2472 27.284 19.724 26.9325 20.0756Z" fill="black"/>
</svg>
