<svg width="33" height="33" viewBox="0 0 33 33" fill="none" xmlns="http://www.w3.org/2000/svg">
<path d="M29.7451 9.13948C29.3131 8.13928 28.6903 7.23292 27.9114 6.47112C27.132 5.70704 26.213 5.09985 25.2044 4.68254C24.1586 4.24811 23.0369 4.02574 21.9044 4.02834C20.3156 4.02834 18.7655 4.4634 17.4185 5.28518C17.0962 5.48176 16.79 5.69768 16.5 5.93293C16.21 5.69768 15.9038 5.48176 15.5815 5.28518C14.2345 4.4634 12.6844 4.02834 11.0956 4.02834C9.95156 4.02834 8.84297 4.24748 7.7956 4.68254C6.78369 5.10149 5.87168 5.70412 5.08857 6.47112C4.30868 7.23206 3.68568 8.13864 3.25488 9.13948C2.80693 10.1804 2.57812 11.2858 2.57812 12.4234C2.57812 13.4965 2.79727 14.6148 3.23232 15.7524C3.59648 16.703 4.11855 17.6892 4.78564 18.685C5.84268 20.2609 7.29609 21.9044 9.10078 23.5705C12.0914 26.3323 15.053 28.2402 15.1787 28.3175L15.9425 28.8073C16.2809 29.0233 16.7159 29.0233 17.0543 28.8073L17.8181 28.3175C17.9437 28.2369 20.9021 26.3323 23.896 23.5705C25.7007 21.9044 27.1541 20.2609 28.2111 18.685C28.8782 17.6892 29.4035 16.703 29.7645 15.7524C30.1995 14.6148 30.4186 13.4965 30.4186 12.4234C30.4219 11.2858 30.1931 10.1804 29.7451 9.13948Z" fill="black"/>
</svg>
