<svg width="41" height="41" viewBox="0 0 41 41" fill="none" xmlns="http://www.w3.org/2000/svg">
<path d="M20.5 0C9.17888 0 0 9.17888 0 20.5C0 31.8211 9.17888 41 20.5 41C31.8211 41 41 31.8211 41 20.5C41 9.17888 31.8211 0 20.5 0ZM25.1774 6.52925H26.3152V11.1828H25.1774C23.0086 11.185 20.9293 12.0474 19.3955 13.5809C17.8618 15.1143 16.9989 17.1934 16.9962 19.3622V20.5H12.3444V19.3622C12.3444 12.2863 18.1015 6.52925 25.1774 6.52925ZM24.0021 20.5H28.6539V21.6378C28.6539 28.7137 22.8968 34.4707 15.8209 34.4707H14.6831V29.8173H15.8209C17.9897 29.815 20.069 28.9526 21.6028 27.4191C23.1365 25.8857 23.9994 23.8066 24.0021 21.6378V20.5Z" fill="white"/>
</svg>
