<svg width="41" height="41" viewBox="0 0 41 41" fill="none" xmlns="http://www.w3.org/2000/svg">
<path d="M33.1476 7.19295C29.9753 7.41674 25.9325 9.19512 23.5519 16.2471C20.3975 25.602 20.2292 32.5566 13.3959 37.4014C17.3538 39.0714 21.7722 39.2992 25.8809 38.0452C29.9895 36.7912 33.5277 34.1349 35.8785 30.5394C38.2293 26.944 39.2436 22.6375 38.7446 18.3708C38.2455 14.1041 36.2647 10.148 33.1476 7.1921V7.19295ZM20.5 2.13543C17.084 2.12499 13.7333 3.07043 10.8266 4.86486C7.91992 6.65929 5.57323 9.23114 4.05186 12.2896C2.53048 15.3481 1.89512 18.7712 2.21759 22.1719C2.54007 25.5726 3.80753 28.8153 5.87667 31.5333C11.8422 27.0711 11.5987 26.9157 16.4162 16.9057C20.5137 8.38964 26.4612 5.86301 31.3052 5.6546C28.1664 3.36807 24.3833 2.13595 20.5 2.13543V2.13543Z" stroke="white" stroke-width="2" stroke-linecap="round" stroke-linejoin="round"/>
</svg>
