<svg width="18" height="18" viewBox="0 0 18 18" fill="none" xmlns="http://www.w3.org/2000/svg">
<path d="M8.38348 14.6768C8.45229 14.7767 8.54435 14.8584 8.65175 14.9148C8.75915 14.9713 8.87866 15.0008 8.99998 15.0008C9.12131 15.0008 9.24082 14.9713 9.34822 14.9148C9.45561 14.8584 9.54768 14.7767 9.61648 14.6768L16.3665 4.92675C16.4446 4.81429 16.4904 4.68257 16.499 4.5459C16.5075 4.40924 16.4784 4.27284 16.4148 4.15155C16.3513 4.03025 16.2557 3.92869 16.1385 3.85789C16.0213 3.7871 15.8869 3.74979 15.75 3.75H2.24998C2.11337 3.75057 1.97949 3.78836 1.86274 3.85932C1.746 3.93029 1.65081 4.03173 1.58741 4.15275C1.52401 4.27376 1.4948 4.40977 1.50292 4.54615C1.51103 4.68253 1.55617 4.81411 1.63348 4.92675L8.38348 14.6768Z" fill="black"/>
</svg>
