<svg width="31" height="31" viewBox="0 0 31 31" fill="none" xmlns="http://www.w3.org/2000/svg">
<path d="M13.95 20.15H17.05V6.2H20.15L15.5 0L10.85 6.2H13.95V20.15ZM26.35 10.85H21.7V13.95H24.8V27.9H6.19998V13.95H9.29998V10.85H4.64998C4.23889 10.85 3.84464 11.0133 3.55396 11.304C3.26328 11.5947 3.09998 11.9889 3.09998 12.4V29.45C3.09998 29.8611 3.26328 30.2553 3.55396 30.546C3.84464 30.8367 4.23889 31 4.64998 31H26.35C26.7611 31 27.1553 30.8367 27.446 30.546C27.7367 30.2553 27.9 29.8611 27.9 29.45V12.4C27.9 11.9889 27.7367 11.5947 27.446 11.304C27.1553 11.0133 26.7611 10.85 26.35 10.85Z" fill="black"/>
</svg>
