<svg width="38" height="28" viewBox="0 0 38 28" fill="none" xmlns="http://www.w3.org/2000/svg">
<mask id="mask0_21_69" style="mask-type:alpha" maskUnits="userSpaceOnUse" x="0" y="0" width="38" height="28">
<path d="M0 0H38V28H0V0Z" fill="white"/>
</mask>
<g mask="url(#mask0_21_69)">
<path fill-rule="evenodd" clip-rule="evenodd" d="M0 0V28H38V0H0Z" fill="#2E42A5"/>
<mask id="mask1_21_69" style="mask-type:alpha" maskUnits="userSpaceOnUse" x="0" y="0" width="38" height="28">
<path fill-rule="evenodd" clip-rule="evenodd" d="M0 0V28H38V0H0Z" fill="white"/>
</mask>
<g mask="url(#mask1_21_69)">
<mask id="mask2_21_69" style="mask-type:alpha" maskUnits="userSpaceOnUse" x="0" y="0" width="38" height="28">
<path d="M0 0H38V28H0V0Z" fill="white"/>
</mask>
<g mask="url(#mask2_21_69)">
<path d="M-4.23108 25.9992L4.1313 29.4747L38.1888 3.77766L42.6004 -1.38601L33.6585 -2.54684L19.7671 8.52599L8.58561 15.988L-4.23108 25.9992Z" fill="white"/>
<path d="M-3.08752 28.434L1.17441 30.45L41.0162 -1.86551H35.0348L-3.08634 28.4328L-3.08752 28.434Z" fill="#F50100"/>
<path d="M42.231 25.9992L33.8687 29.4747L-0.18884 3.77766L-4.6004 -1.38601L4.34147 -2.54684L18.2328 8.52599L29.4143 15.988L42.231 25.9992Z" fill="white"/>
<path d="M41.9461 27.7468L37.6853 29.7628L20.7207 15.9262L15.6904 14.3815L-5.02551 -1.3685H0.957113L21.66 14.0082L27.1593 15.8608L41.9461 27.7468Z" fill="#F50100"/>
<mask id="mask3_21_69" style="mask-type:alpha" maskUnits="userSpaceOnUse" x="-3" y="-3" width="44" height="34">
<path fill-rule="evenodd" clip-rule="evenodd" d="M23.4864 -2.33334H14.5136V9.33332H-2.34177V18.6667H14.5136V30.3333H23.4864V18.6667H40.4082V9.33332H23.4864V-2.33334Z" fill="white"/>
</mask>
<g mask="url(#mask3_21_69)">
<path fill-rule="evenodd" clip-rule="evenodd" d="M23.4864 -2.33334H14.5136V9.33332H-2.34177V18.6667H14.5136V30.3333H23.4864V18.6667H40.4082V9.33332H23.4864V-2.33334Z" fill="#F50100"/>
<path d="M14.5136 -2.33335V-4.66669H12.1386V-2.33335H14.5136ZM23.4864 -2.33335H25.8614V-4.66669H23.4864V-2.33335ZM14.5136 9.33331V11.6666H16.8886V9.33331H14.5136ZM-2.34177 9.33331V6.99998H-4.71677V9.33331H-2.34177ZM-2.34177 18.6666H-4.71677V21H-2.34177V18.6666ZM14.5136 18.6666H16.8886V16.3333H14.5136V18.6666ZM14.5136 30.3333H12.1386V32.6666H14.5136V30.3333ZM23.4864 30.3333V32.6666H25.8614V30.3333H23.4864ZM23.4864 18.6666V16.3333H21.1114V18.6666H23.4864ZM40.4082 18.6666V21H42.7832V18.6666H40.4082ZM40.4082 9.33331H42.7832V6.99998H40.4082V9.33331ZM23.4864 9.33331H21.1114V11.6666H23.4864V9.33331ZM14.5136 -2.0504e-05H23.4864V-4.66669H14.5136V-2.0504e-05ZM16.8886 9.33331V-2.33335H12.1386V9.33331H16.8886ZM-2.34177 11.6666H14.5136V6.99998H-2.34177V11.6666ZM0.0332336 18.6666V9.33331H-4.71677V18.6666H0.0332336ZM14.5136 16.3333H-2.34177V21H14.5136V16.3333ZM16.8886 30.3333V18.6666H12.1386V30.3333H16.8886ZM23.4864 28H14.5136V32.6666H23.4864V28ZM21.1114 18.6666V30.3333H25.8614V18.6666H21.1114ZM40.4082 16.3333H23.4864V21H40.4082V16.3333ZM38.0332 9.33331V18.6666H42.7832V9.33331H38.0332ZM23.4864 11.6666H40.4082V6.99998H23.4864V11.6666ZM21.1114 -2.33335V9.33331H25.8614V-2.33335H21.1114Z" fill="white"/>
</g>
</g>
</g>
</g>
</svg>
